<?xml version="1.0" standalone="no"?>
<!DOCTYPE svg PUBLIC "-//W3C//DTD SVG 20010904//EN"
 "http://www.w3.org/TR/2001/REC-SVG-20010904/DTD/svg10.dtd">
<svg version="1.0" xmlns="http://www.w3.org/2000/svg"
 width="1024.000000pt" height="1024.000000pt" viewBox="0 0 1024.000000 1024.000000"
 preserveAspectRatio="xMidYMid meet">

<g transform="translate(0.000000,1024.000000) scale(0.100000,-0.100000)"
fill="#000000" stroke="none">
<path d="M298 10108 c-22 -8 -38 -26 -25 -29 50 -11 685 -44 676 -35 -3 3 -84
17 -180 31 -96 14 -187 30 -203 35 -37 13 -233 12 -268 -2z"/>
<path d="M204 10036 c-45 -16 -64 -35 -64 -65 0 -44 36 -66 131 -81 46 -7 125
-21 174 -32 50 -11 117 -26 150 -33 33 -7 81 -20 106 -29 26 -9 73 -20 105
-25 83 -14 147 -29 454 -112 153 -42 346 -91 385 -98 22 -4 60 -13 85 -20 76
-21 138 -38 315 -82 160 -40 182 -49 365 -142 107 -55 269 -138 360 -184 123
-62 187 -102 252 -156 48 -40 122 -99 164 -132 43 -33 121 -96 174 -140 52
-44 124 -103 160 -132 36 -28 77 -65 93 -82 15 -17 32 -31 38 -31 7 0 17 -8
24 -17 11 -15 17 -15 56 -4 56 17 89 41 120 85 13 19 34 40 47 46 13 5 22 16
19 23 -2 6 2 18 10 25 7 7 12 31 11 53 l-1 40 -46 -3 c-40 -3 -47 0 -65 27
-22 33 -115 117 -227 206 -92 73 -138 119 -119 119 8 0 26 -9 40 -20 14 -11
28 -20 32 -20 14 0 153 -94 211 -142 61 -50 67 -54 67 -39 0 17 -65 80 -133
129 -92 66 -214 142 -229 142 -7 0 -19 9 -26 21 -7 11 -21 19 -30 17 -15 -2
-125 44 -172 72 -8 5 -37 21 -65 35 -27 15 -59 35 -70 45 -11 9 -42 29 -70 42
-68 33 -147 78 -166 94 -8 8 -20 14 -26 14 -6 0 -57 24 -114 53 -111 56 -357
165 -479 212 -82 32 -155 65 -145 66 6 1 21 0 35 -1 21 -2 22 0 11 14 -7 9
-25 16 -38 16 -14 0 -48 7 -77 16 -103 33 -122 37 -161 41 -22 2 -60 11 -85
19 -25 8 -64 16 -85 19 -22 3 -78 11 -125 20 -90 15 -224 28 -480 45 -85 6
-188 15 -228 21 -40 5 -97 9 -127 9 -30 0 -87 4 -127 9 -80 11 -293 32 -348
36 -19 1 -49 -3 -66 -9z m3391 -1202 c175 -155 206 -185 199 -195 -7 -12 -36
4 -97 53 -27 21 -53 38 -58 38 -5 0 -40 30 -78 66 -48 45 -68 71 -64 82 4 13
3 14 -5 3 -5 -7 -15 -10 -22 -6 -9 6 -9 9 1 16 11 6 11 11 1 21 -13 13 -16 28
-4 28 4 0 61 -48 127 -106z m303 -246 c-2 -6 -10 -14 -16 -16 -7 -2 -10 2 -6
12 7 18 28 22 22 4z"/>
<path d="M3590 8792 c0 -4 9 -13 20 -20 19 -12 20 -11 8 8 -13 20 -28 27 -28
12z"/>
<path d="M2330 9720 c0 -5 5 -10 10 -10 6 0 10 5 10 10 0 6 -4 10 -10 10 -5 0
-10 -4 -10 -10z"/>
<path d="M2385 9700 c4 -6 11 -8 16 -5 14 9 11 15 -7 15 -8 0 -12 -5 -9 -10z"/>
<path d="M3956 8527 c-17 -19 -47 -43 -66 -55 -20 -11 -46 -32 -59 -46 -13
-14 -36 -28 -52 -31 -35 -8 -36 -16 -9 -122 37 -151 58 -176 195 -243 37 -18
82 -51 109 -80 26 -28 55 -50 65 -50 32 0 110 51 148 95 20 24 46 46 58 49 25
6 69 95 54 111 -13 14 -11 27 4 19 8 -5 9 -4 2 4 -17 18 -85 -5 -125 -42 -19
-18 -55 -47 -80 -63 -25 -17 -54 -40 -64 -52 -11 -11 -28 -21 -38 -21 -30 0
-33 28 -5 56 15 14 29 36 33 48 8 26 53 65 77 66 27 0 32 27 13 86 -19 59 -18
59 -47 44 -26 -14 -24 -32 6 -60 29 -27 31 -42 10 -60 -26 -22 -45 5 -45 66 0
29 -4 56 -10 59 -18 11 -10 25 15 25 20 0 25 5 25 25 0 14 -4 33 -9 43 -6 9
-16 37 -23 62 -10 33 -21 48 -43 59 -16 7 -43 20 -58 27 -40 19 -45 18 -81
-19z m138 -123 c10 -26 7 -42 -13 -61 -10 -10 -21 -27 -25 -38 -3 -13 -4 -12
-2 6 2 17 -4 30 -16 38 -24 15 -23 31 1 31 11 0 23 9 26 20 8 24 21 26 29 4z
m-78 -255 c92 -17 91 -15 44 -62 -39 -39 -43 -41 -54 -23 -6 10 -23 30 -38 44
-27 24 -37 52 -20 52 5 0 35 -5 68 -11z"/>
<path d="M4398 8048 c-18 -18 -71 -73 -117 -121 l-84 -88 31 -38 c16 -20 49
-75 73 -121 34 -65 44 -97 47 -145 l4 -61 -60 -27 c-33 -15 -66 -27 -75 -27
-26 0 -47 -12 -47 -26 0 -8 -6 -14 -14 -14 -8 0 -16 -7 -20 -15 -3 -8 -12 -15
-21 -15 -8 0 -15 -4 -15 -10 0 -5 -16 -10 -35 -10 -36 0 -106 -31 -106 -47 0
-4 -13 -7 -29 -7 -24 2 -30 -2 -30 -20 -1 -20 -1 -20 -15 -3 -21 29 -37 21
-169 -86 -21 -18 -47 -40 -57 -49 -11 -10 -24 -18 -29 -18 -6 0 -19 -5 -29
-12 -15 -9 -18 -20 -14 -47 3 -27 2 -32 -6 -21 -9 12 -11 12 -16 -2 -4 -10 -4
-22 0 -28 3 -5 -1 -13 -9 -16 -9 -3 -16 -15 -16 -26 0 -24 -16 -56 -45 -88
-12 -14 -28 -43 -35 -65 -7 -22 -19 -57 -26 -78 -20 -55 -17 -116 11 -230 14
-56 27 -113 30 -127 5 -26 120 -175 189 -244 23 -23 60 -62 83 -88 23 -27 95
-92 160 -146 65 -55 126 -108 137 -120 10 -12 45 -38 77 -58 32 -21 57 -39 55
-41 -1 -2 -28 8 -60 23 -31 14 -61 24 -67 22 -6 -2 9 -28 32 -58 24 -30 66
-84 92 -120 l49 -65 -6 -235 c-4 -129 -14 -318 -22 -420 -24 -268 -8 -644 36
-886 30 -168 199 -669 288 -854 134 -281 200 -430 252 -574 l43 -119 -12 -142
c-10 -118 -9 -147 2 -180 8 -22 69 -156 137 -299 92 -197 153 -309 254 -470
174 -279 259 -432 259 -467 0 -15 -12 -46 -27 -68 -26 -37 -28 -45 -21 -103 4
-35 12 -74 17 -88 6 -14 11 -52 13 -85 2 -54 11 -74 85 -208 45 -81 93 -156
106 -166 44 -34 126 -35 288 -2 80 17 164 40 185 51 87 44 217 156 405 347
108 111 213 209 232 218 29 14 53 15 137 10 155 -9 190 -26 362 -176 238 -206
608 -415 787 -445 38 -7 262 37 305 60 25 13 105 103 139 158 39 61 24 121
-17 71 -8 -9 -48 -32 -89 -52 -71 -33 -80 -35 -180 -34 -91 0 -116 4 -185 30
-79 30 -215 108 -215 125 0 14 20 9 26 -6 7 -17 96 -37 139 -31 17 3 49 -4 74
-16 33 -16 55 -19 87 -14 26 3 45 2 49 -5 10 -16 45 -12 45 5 0 21 27 30 45
15 7 -6 26 -10 41 -8 22 2 30 10 36 36 7 27 12 31 23 22 22 -18 65 -2 65 26 0
13 4 24 9 24 5 0 11 12 13 28 2 18 8 26 19 24 19 -3 33 24 22 41 -4 7 -13 28
-20 47 -9 27 -9 36 0 42 9 6 5 14 -13 27 -18 14 -21 22 -13 33 6 7 14 31 17
52 4 22 34 125 67 230 54 172 85 277 165 571 15 55 28 141 34 220 22 304 31
406 40 456 10 52 9 55 -15 72 -31 23 -31 32 0 59 14 12 25 28 25 36 0 11 9 13
39 9 35 -4 43 -1 67 25 52 59 232 371 319 553 26 55 66 139 90 186 23 48 52
127 64 175 12 49 26 107 32 129 5 22 25 101 44 175 49 188 55 266 61 775 4
282 1 408 -11 530 -8 88 -16 246 -17 350 l-2 190 33 70 c18 39 42 89 52 112
11 23 43 70 70 104 49 61 66 97 31 66 -10 -10 -22 -17 -25 -17 -4 0 -40 -22
-80 -49 -40 -27 -90 -58 -110 -67 -20 -10 -37 -21 -37 -26 0 -4 -6 -8 -14 -8
-7 0 -33 -11 -58 -24 -68 -36 -247 -106 -272 -106 -12 0 -60 -12 -107 -26
-466 -146 -1078 -245 -1879 -303 -293 -22 -849 -5 -930 28 -24 9 -24 10 -2 10
13 1 22 7 22 17 0 14 -9 15 -57 10 -32 -4 -78 -11 -103 -17 -30 -7 -54 -7 -70
0 -18 7 -20 10 -7 10 9 1 17 6 17 12 0 8 -9 9 -27 4 -52 -15 -145 -10 -158 8
-9 12 -21 15 -47 11 -22 -4 -38 -2 -43 5 -5 9 -10 9 -21 0 -11 -9 -21 -9 -42
1 -15 7 -43 14 -62 15 -66 6 -114 15 -124 25 -6 6 -23 10 -38 10 -15 0 -28 4
-28 8 0 5 -6 9 -12 10 -56 4 -97 11 -121 21 -16 6 -37 11 -47 11 -10 0 -21 4
-25 10 -3 5 7 9 22 9 42 1 77 6 92 15 14 9 140 -8 233 -31 32 -7 69 -11 83 -7
18 4 32 1 45 -11 16 -14 30 -17 74 -11 33 3 57 2 61 -4 4 -6 13 -7 23 -2 23
12 203 -7 219 -23 7 -8 41 -13 85 -14 40 -1 81 -4 91 -7 10 -3 24 0 32 6 8 6
23 9 35 5 12 -4 26 -2 33 3 7 5 37 10 67 10 308 0 892 13 995 21 144 11 176
15 315 38 105 17 141 32 164 65 19 27 22 133 4 144 -7 5 -69 9 -137 10 -103 1
-127 5 -137 18 -10 14 -32 16 -155 15 -227 -3 -270 -2 -339 5 -118 11 -662 16
-681 5 -13 -6 -26 -6 -39 1 -11 6 -66 11 -122 11 -56 0 -185 7 -287 15 -103 8
-224 17 -270 20 -53 4 -90 11 -99 20 -9 10 -18 11 -26 5 -11 -9 -124 0 -186
15 l-25 6 25 18 c27 21 64 21 280 -1 415 -40 1005 -53 1360 -30 432 29 603 42
705 56 61 8 196 25 300 39 105 14 210 29 235 35 25 6 83 17 130 26 172 33 195
39 198 58 3 14 -4 17 -37 17 -22 0 -43 -5 -46 -10 -4 -6 -11 -8 -16 -4 -14 8
19 30 56 37 97 17 482 135 562 172 17 8 34 15 38 15 9 0 129 47 180 70 22 10
58 22 80 26 22 4 67 20 99 35 33 16 66 29 73 29 10 0 12 7 8 19 -3 11 -1 22 5
26 7 4 14 -2 17 -13 4 -18 8 -19 29 -10 19 9 22 16 17 36 -5 22 -4 23 13 14
14 -8 26 -6 49 6 16 9 32 20 35 23 10 13 50 20 50 10 0 -6 12 -11 26 -11 31 0
28 23 -4 28 -12 2 -22 10 -22 18 0 20 -76 19 -84 -1 -3 -8 -12 -15 -19 -15 -8
0 -20 -7 -27 -15 -7 -8 -23 -15 -36 -15 -12 0 -26 -4 -29 -10 -3 -5 -13 -10
-21 -10 -8 0 -29 -16 -46 -35 -24 -28 -33 -33 -44 -24 -11 9 -25 4 -61 -19
-27 -17 -61 -36 -78 -42 -16 -6 -48 -19 -70 -30 -97 -46 -339 -132 -480 -170
-44 -11 -109 -29 -145 -39 -36 -10 -90 -24 -120 -30 -261 -54 -471 -93 -580
-106 -30 -4 -71 -10 -90 -15 -19 -5 -60 -11 -90 -14 -30 -3 -98 -11 -150 -16
-301 -32 -620 -49 -620 -33 0 17 71 33 190 43 566 48 844 89 1215 180 336 82
649 205 830 326 98 65 225 202 225 242 0 23 -33 36 -125 49 l-48 6 34 30 c62
54 143 133 192 187 48 52 49 54 49 122 1 65 11 87 25 52 6 -16 7 -16 18 0 7 9
32 20 56 24 l44 8 -47 18 c-53 21 -92 64 -103 114 -4 21 -12 32 -20 29 -7 -3
-22 8 -34 24 -12 16 -39 38 -61 49 -22 11 -40 24 -40 28 0 4 -30 20 -67 36
-38 15 -75 32 -83 37 -8 5 -22 12 -30 15 -8 3 -28 12 -43 20 -16 7 -37 14 -48
14 -11 0 -33 7 -48 15 -16 8 -46 19 -67 24 -22 6 -73 20 -114 31 -88 25 -314
73 -420 89 -41 6 -154 22 -250 36 -96 15 -229 35 -295 45 -66 11 -187 27 -270
35 -82 9 -186 21 -230 26 -216 26 -714 28 -1030 4 -33 -2 -112 -6 -175 -10
-145 -6 -310 -26 -310 -37 0 -10 192 1 240 13 61 16 803 23 1060 10 130 -7
249 -14 265 -16 17 -2 59 -6 95 -9 183 -19 444 -67 582 -107 59 -18 117 -50
126 -71 2 -5 10 -8 17 -8 8 0 18 -6 22 -13 4 -7 20 -18 35 -24 20 -9 25 -17
21 -33 -4 -16 -2 -19 12 -13 15 5 17 2 13 -15 -5 -19 -2 -22 22 -22 30 0 47
-14 31 -25 -6 -3 -19 0 -30 7 -15 9 -23 9 -33 0 -11 -9 -22 -7 -49 7 -31 16
-151 38 -189 34 -14 -2 -64 16 -102 37 -10 6 -29 10 -42 10 -13 0 -37 7 -52
15 -16 8 -42 15 -57 15 -15 0 -30 6 -33 14 -3 8 -13 12 -23 9 -10 -3 -33 3
-50 11 -17 9 -31 12 -31 6 0 -5 -14 -1 -31 9 -18 11 -38 17 -45 14 -8 -3 -37
2 -66 10 -151 44 -192 49 -458 56 -307 7 -326 6 -333 -20 -4 -16 -14 -19 -57
-19 -44 0 -51 3 -46 16 5 13 1 15 -20 10 -14 -4 -39 -17 -56 -29 l-30 -22 48
-3 c54 -4 64 -12 64 -59 0 -26 -4 -33 -20 -33 -11 0 -20 -4 -20 -10 0 -12 -37
-50 -49 -50 -24 0 -28 -65 -5 -74 13 -5 14 -9 4 -21 -7 -8 -20 -15 -29 -15 -9
0 -31 -9 -50 -21 -27 -16 -36 -18 -42 -7 -7 11 -14 10 -39 -4 -17 -10 -37 -15
-45 -12 -8 4 -15 1 -15 -4 0 -6 -14 -12 -32 -14 -25 -2 -33 -9 -39 -32 -5 -16
-17 -38 -28 -50 -11 -12 -26 -37 -32 -56 -7 -19 -20 -43 -30 -53 -11 -10 -19
-27 -19 -38 0 -29 55 -82 77 -75 26 8 45 -7 37 -28 -5 -13 -14 -17 -35 -12
-16 3 -31 1 -34 -4 -3 -6 -16 -10 -29 -10 -12 0 -31 -7 -42 -15 -17 -14 -12
-14 51 -8 39 4 219 8 402 8 252 0 335 -3 344 -12 11 -11 9 -13 -9 -13 -12 0
-22 -5 -22 -10 0 -6 15 -9 35 -7 20 3 43 -2 56 -11 13 -9 33 -12 55 -9 19 3
34 2 34 -4 0 -5 -3 -9 -7 -9 -104 -3 -166 -9 -175 -18 -14 -14 -6 -24 24 -27
36 -4 38 -4 38 -15 0 -12 -68 -12 -127 -1 -23 4 -47 4 -55 0 -14 -9 -8 -12 45
-23 58 -13 14 -27 -79 -25 -52 1 -98 -1 -101 -5 -3 -3 -20 -6 -37 -6 -24 0
-27 -3 -16 -10 8 -5 25 -10 38 -10 35 0 26 -18 -16 -30 -24 -6 -44 -19 -52
-35 -7 -14 -21 -25 -30 -25 -28 0 -45 -27 -30 -45 16 -20 -3 -45 -29 -38 -25
6 -35 -12 -21 -38 19 -34 6 -50 -28 -37 -24 10 -33 8 -60 -12 -26 -19 -34 -21
-46 -10 -13 10 -17 9 -22 -4 -3 -9 -4 -23 0 -31 15 -40 -42 -65 -63 -28 -5 10
-13 14 -18 9 -4 -5 -2 -11 5 -13 6 -3 12 -16 12 -29 0 -18 5 -24 22 -24 41 0
4 -19 -47 -25 -70 -7 -100 -18 -100 -35 0 -11 -13 -16 -49 -18 l-48 -3 5 -34
c5 -28 0 -39 -29 -69 -19 -20 -30 -36 -24 -36 23 0 8 -28 -22 -41 -43 -16 -43
-16 -29 -33 17 -21 3 -39 -25 -33 -13 2 -24 0 -24 -4 0 -5 -15 -12 -32 -17
l-33 -9 36 -12 c20 -6 94 -20 165 -30 126 -18 127 -19 58 -20 -72 -1 -451 31
-584 50 -41 5 -183 28 -315 49 -345 56 -422 65 -441 49 -15 -12 -41 -11 -229
9 -38 5 -87 17 -109 28 l-39 21 99 9 c55 5 142 8 194 7 87 -2 93 -1 65 12 -71
32 -227 95 -236 95 -6 0 -34 11 -62 24 -29 13 -73 33 -99 45 -26 11 -56 21
-67 21 -13 0 -21 7 -22 18 0 9 -19 31 -42 47 -57 41 -82 94 -71 148 9 43 19
49 95 61 19 4 43 12 53 19 15 11 8 20 -71 84 -78 64 -142 129 -166 170 -13 21
9 132 30 155 13 15 25 18 48 13 16 -4 39 -8 50 -10 11 -1 20 -3 20 -5 0 -1 16
-4 35 -6 19 -3 40 -12 46 -20 7 -8 36 -17 65 -20 30 -3 63 -9 74 -14 11 -5 36
-11 55 -15 19 -3 50 -8 68 -12 18 -3 35 -9 38 -14 3 -5 14 -9 24 -9 23 0 54
-40 110 -145 24 -44 63 -108 86 -143 23 -34 48 -79 54 -100 7 -20 16 -41 21
-47 16 -17 9 -40 -23 -79 -26 -32 -33 -35 -40 -22 -5 9 -13 16 -18 16 -11 0
-30 -64 -30 -99 0 -23 1 -23 18 -8 10 10 21 17 23 17 10 0 188 -176 204 -201
17 -28 75 -49 134 -49 39 0 39 0 1 70 -107 199 -162 290 -194 325 -12 13 -25
29 -31 37 -22 30 -115 218 -145 293 -17 43 -36 86 -43 94 -9 11 -9 15 1 18 6
3 12 13 12 24 0 10 3 19 6 19 10 0 69 -35 72 -42 5 -12 37 -9 49 3 6 6 9 18 6
25 -3 8 -2 26 1 40 l7 27 42 -44 c23 -24 56 -62 72 -83 58 -75 64 -82 65 -67
0 17 -105 213 -273 506 -165 289 -187 324 -282 450 -45 61 -90 125 -99 143
-17 33 -17 35 9 74 34 51 25 60 -17 16z m18 -670 c9 -18 40 -71 69 -118 28
-47 58 -103 65 -125 7 -22 17 -49 22 -60 9 -16 8 -18 -3 -7 -7 6 -23 12 -35
12 -22 0 -39 24 -29 40 5 8 -55 60 -69 60 -8 0 -87 60 -99 75 -16 20 -1 105
23 130 30 32 36 32 56 -7z m311 -20 c-3 -8 -6 -5 -6 6 -1 11 2 17 5 13 3 -3 4
-12 1 -19z m55 -72 c7 -13 7 -16 -1 -12 -6 4 -18 22 -27 39 -14 30 -14 31 1
12 9 -11 21 -28 27 -39z m44 -78 c8 -16 13 -32 11 -34 -3 -3 -14 14 -26 36
-12 23 -17 39 -11 35 6 -3 17 -20 26 -37z m1954 32 c0 -5 -13 -10 -30 -10 -16
0 -30 5 -30 10 0 6 14 10 30 10 17 0 30 -4 30 -10z m2717 -32 c-3 -8 -6 -5 -6
6 -1 11 2 17 5 13 3 -3 4 -12 1 -19z m-5700 -60 c-3 -8 -6 -5 -6 6 -1 11 2 17
5 13 3 -3 4 -12 1 -19z m4068 12 c3 -5 1 -10 -4 -10 -6 0 -11 5 -11 10 0 6 2
10 4 10 3 0 8 -4 11 -10z m-302 -37 c-7 -2 -19 -2 -25 0 -7 3 -2 5 12 5 14 0
19 -2 13 -5z m162 -26 c7 -6 -1 -8 -24 -3 -18 3 -44 6 -57 6 -13 0 -24 4 -24
9 0 11 92 1 105 -12z m-3985 -17 c-12 -7 -12 -10 4 -16 10 -4 27 -2 37 4 14 9
18 8 21 -6 2 -9 -3 -22 -12 -29 -13 -11 -12 -12 8 -13 12 0 25 -7 29 -16 7
-19 -17 -38 -31 -24 -21 21 -28 9 -8 -13 19 -20 20 -26 9 -42 -16 -25 -20 -72
-7 -80 6 -3 10 2 10 12 1 17 1 17 11 0 13 -21 3 -107 -12 -107 -5 0 -9 -5 -9
-11 0 -5 5 -7 10 -4 16 10 41 -16 35 -35 -3 -10 1 -25 10 -33 8 -9 15 -22 15
-30 0 -7 3 -17 8 -21 4 -4 8 -12 8 -17 1 -5 2 -13 3 -17 0 -5 15 -7 31 -4 25
4 30 1 30 -17 0 -12 6 -21 15 -21 16 0 28 -36 23 -66 -2 -12 2 -18 11 -16 7 1
19 -2 27 -9 8 -7 28 -9 49 -5 27 5 42 1 75 -20 49 -33 46 -41 -6 -18 -22 9
-66 17 -100 18 -73 1 -114 24 -114 62 0 22 -3 25 -23 20 -31 -7 -64 17 -72 54
-4 17 -11 30 -16 30 -6 0 -8 3 -6 8 3 4 1 16 -3 27 -7 19 -8 19 -18 -5 l-9
-25 -7 33 c-6 25 -13 32 -32 32 -17 0 -24 6 -24 20 0 11 -5 20 -10 20 -20 0
-23 31 -5 44 16 12 15 15 -19 35 -20 13 -36 26 -37 29 -6 39 -5 80 3 95 6 12
6 29 -1 48 -7 21 -6 38 4 62 16 39 50 71 64 62 6 -3 11 -1 11 4 0 6 8 11 18
11 14 0 15 -2 2 -10z m2860 -457 c0 -7 -4 -13 -9 -13 -16 0 -33 30 -26 47 6
17 7 17 21 -1 8 -11 14 -26 14 -33z m-55 -53 c3 -5 1 -10 -4 -10 -6 0 -11 5
-11 10 0 6 2 10 4 10 3 0 8 -4 11 -10z m-2497 -82 c17 -17 15 -28 -7 -28 -22
0 -35 15 -26 30 8 13 18 13 33 -2z m204 -196 c-17 -5 -52 17 -52 34 0 12 6 11
32 -7 17 -13 26 -25 20 -27z m163 -73 c11 -17 2 -18 -19 -3 -17 12 -17 14 -4
14 9 0 20 -5 23 -11z m420 -279 c3 -5 1 -10 -4 -10 -6 0 -11 5 -11 10 0 6 2
10 4 10 3 0 8 -4 11 -10z m148 -17 c-7 -2 -19 -2 -25 0 -7 3 -2 5 12 5 14 0
19 -2 13 -5z m167 -24 c41 -6 94 -13 118 -16 23 -3 42 -9 42 -15 0 -16 -215 5
-226 23 -3 5 -16 9 -30 9 -13 0 -24 5 -24 10 0 6 10 8 23 5 12 -2 56 -10 97
-16z m1978 -303 c29 -10 27 -26 -6 -52 -36 -28 -86 -39 -103 -22 -17 16 -66
48 -74 48 -3 0 -5 -9 -5 -20 0 -24 -15 -27 -24 -4 -3 8 -11 12 -17 9 -11 -7
-61 33 -55 44 6 9 256 6 284 -3z m-1071 -282 c-3 -3 -12 -4 -19 -1 -8 3 -5 6
6 6 11 1 17 -2 13 -5z m2733 -2808 c0 -3 -4 -8 -10 -11 -5 -3 -10 -1 -10 4 0
6 5 11 10 11 6 0 10 -2 10 -4z"/>
<path d="M4520 7116 c0 -8 5 -18 10 -21 6 -3 10 3 10 14 0 12 -4 21 -10 21 -5
0 -10 -6 -10 -14z"/>
<path d="M3780 6695 c0 -8 5 -15 10 -15 6 0 10 7 10 15 0 8 -4 15 -10 15 -5 0
-10 -7 -10 -15z"/>
<path d="M5437 7787 c-4 -10 3 -12 24 -9 40 6 47 22 11 22 -17 0 -32 -6 -35
-13z"/>
<path d="M5319 7779 c-70 -7 -211 -34 -396 -76 -26 -6 -28 -12 -10 -36 10 -14
18 -15 52 -6 53 14 185 46 260 63 91 22 179 48 190 58 6 5 6 8 0 7 -6 -1 -49
-5 -96 -10z"/>
<path d="M9795 6674 c-6 -9 -23 -16 -38 -16 -38 0 -43 -15 -7 -23 16 -4 30
-13 30 -21 0 -16 16 -19 25 -4 3 6 10 10 16 10 16 0 10 -29 -11 -50 -11 -11
-20 -23 -20 -26 0 -3 23 -3 50 -1 39 4 61 14 95 42 25 20 45 38 45 40 0 1 -6
13 -12 26 -9 16 -22 24 -40 24 -16 1 -28 -3 -28 -7 0 -4 -18 -8 -40 -8 -29 0
-40 4 -40 15 0 20 -13 19 -25 -1z"/>
<path d="M4520 6660 c-12 -12 -19 -24 -17 -28 2 -4 9 -21 17 -37 26 -62 90
-81 90 -28 0 14 7 31 16 38 15 10 15 15 3 41 -19 39 -77 46 -109 14z"/>
<path d="M5400 6665 c0 -9 24 -66 101 -242 11 -24 24 -43 30 -43 6 0 9 -6 6
-13 -3 -7 6 -38 20 -68 14 -30 27 -62 29 -73 2 -10 10 -27 19 -36 20 -23 55
-90 55 -108 0 -24 48 -62 80 -62 16 0 30 3 30 7 0 7 -62 114 -105 183 -12 19
-49 83 -81 142 -94 172 -184 324 -184 313z"/>
<path d="M5260 6506 c0 -8 4 -17 9 -20 5 -3 21 -29 36 -58 15 -29 33 -60 41
-69 8 -8 14 -20 14 -26 0 -6 6 -16 13 -22 8 -6 25 -32 38 -58 13 -27 26 -50
29 -53 9 -9 51 -84 63 -113 8 -19 23 -30 47 -37 61 -17 65 -11 20 37 -17 18
-30 43 -30 57 0 17 -10 33 -30 48 -17 12 -30 31 -30 44 0 12 -7 27 -15 34 -8
7 -15 16 -15 21 0 16 -60 97 -97 131 -21 18 -50 49 -65 67 -17 20 -28 27 -28
17z"/>
<path d="M5977 6343 c-19 -18 18 -93 46 -93 8 0 7 4 -1 12 -7 7 -12 21 -12 33
-1 23 -24 58 -33 48z"/>
<path d="M8770 6080 c-20 -6 -21 -8 -5 -8 11 0 29 3 40 8 25 11 -1 11 -35 0z"/>
<path d="M8623 6073 c-30 -4 -48 -23 -22 -23 5 0 8 -4 5 -9 -8 -12 75 -1 92
12 31 24 9 30 -75 20z"/>
<path d="M5420 5430 c0 -5 5 -10 10 -10 6 0 10 5 10 10 0 6 -4 10 -10 10 -5 0
-10 -4 -10 -10z"/>
<path d="M5918 5413 c7 -3 16 -2 19 1 4 3 -2 6 -13 5 -11 0 -14 -3 -6 -6z"/>
<path d="M7358 5373 c7 -3 16 -2 19 1 4 3 -2 6 -13 5 -11 0 -14 -3 -6 -6z"/>
<path d="M7508 5363 c7 -3 16 -2 19 1 4 3 -2 6 -13 5 -11 0 -14 -3 -6 -6z"/>
</g>
</svg>
